<svg>
  <symbol xmlns="http://www.w3.org/2000/svg" viewBox="0 0 256 256" id="person">
    <path d="M195.1 169.3l-24.6 23.3-10.1-10.5c-1.9-2-5.1-2.1-7.1-.1-2 1.9-2.1 5.1-.1 7.1l13.5 14.1c1 1 2.3 1.5 3.6 1.5 1.2 0 2.5-.5 3.5-1.4l28.2-26.8c2-1.9 2.1-5.1.2-7.1-1.9-2-5.1-2.1-7.1-.1z"></path>
    <path d="M240.2 176l-.7-4.2h-10.6c-1.1-4-2.7-7.8-4.8-11.4 1.5-1.5 2.9-3 4.4-4.4l3.1-3-2.5-3.5c-4.1-5.6-9-10.5-14.6-14.6l-3.5-2.5-3 3.1-2.8 2.8-1.6 1.6c-3.6-2-7.5-3.6-11.5-4.7v-10.6l-4.2-.7c-6.6-1.1-13.6-1.1-20.2 0l-4.4.8.2 4.5v6c-4 1.1-7.8 2.7-11.5 4.7l-1.7-1.7c-.9-.9-1.9-1.8-2.8-2.8l-3-3.1-3.5 2.5c-5.7 4-10.6 8.9-14.6 14.6l-2.5 3.5 3.1 3c1.5 1.5 3 2.9 4.4 4.4-2 3.6-3.6 7.5-4.8 11.4H116l-.7 4.2c-.6 3.4-.8 6.9-.8 10.3s.3 6.9.8 10.3l.6 3.8 4.5.4h6.2c1.1 4.1 2.8 7.9 4.8 11.6l-2 2-1.8 1.8-.8.8-2.8 3 2.4 3.3c4 5.6 8.9 10.4 14.5 14.4l3.2 2.3 3-2.6.5-.5c1.1-1.2 2.2-2.3 3.4-3.4l.9-.9c3.7 2 7.5 3.6 11.5 4.7v6.2l.3 4.5 4 .6c3.3.5 6.7.8 10.1.8 3.4 0 6.8-.3 10.1-.8l4.3-.9-.1-4.4v-6c4-1.1 7.9-2.7 11.5-4.7l.8.8 3.4 3.4 3.4 3.2 3.3-2.4c5.6-4 10.5-8.9 14.5-14.4l2.4-3.4-2.8-3-.8-.8-1.8-1.8-2-2c2.1-3.7 3.7-7.6 4.8-11.6h5.8l4.9-.4.6-3.8c.6-3.4.8-6.8.8-10.3.1-3.1-.1-6.6-.7-10zm-9.4 14.7h-5.5l-4.6.5-.7 3.6c-1.1 5.6-3.3 10.8-6.5 15.5l-1.9 2.9 2 2.8c.3.4.7.9 1.1 1.3l3.6 3.6c-1.9 2.2-4 4.3-6.2 6.2l-.5-.5-3.1-3.1c-.4-.4-.9-.8-1.4-1.1l-2.8-1.8-2.8 1.8c-4.7 3.1-9.9 5.3-15.5 6.4l-3.1.6-.8 3.1c-.2.7-.2 1.4-.2 2.2v4.9c-2.8.2-5.7.2-8.5 0v-4.9c0-.8-.1-1.5-.2-2.2l-.8-3.1-3.1-.6c-5.5-1.1-10.7-3.2-15.5-6.4l-2.8-1.8-2.8 1.8c-.5.3-.9.7-1.3 1.1-1 1.1-2.1 2.1-3.1 3.2l-.5.5c-2.2-1.9-4.3-3.9-6.2-6.2l3.6-3.6c.5-.4.8-.9 1.1-1.3l1.9-2.8-1.9-2.8c-3.2-4.7-5.4-10-6.5-15.5l-.7-3.6-4.3-.5h-5.8c-.1-1.5-.2-2.9-.2-4.4 0-1.5.1-3 .2-4.5 1.6 0 3.2 0 4.7.1.8 0 1.6-.1 2.4-.2l3-.8.6-3.1c1.1-5.5 3.2-10.6 6.4-15.3l1.8-2.7-1.7-2.8c-.5-.8-1.1-1.5-1.7-2l-1.3-1.3-1.8-1.8c1.9-2.3 4-4.4 6.3-6.3 1.1 1.1 2.3 2.2 3.4 3.4.8.8 1.6 1.4 2.4 1.8l2.5 1.1 2.3-1.5c4.7-3.1 9.9-5.2 15.4-6.3l3.1-.6.8-3c.2-.7.2-1.4.2-2.1v-5c2.8-.2 5.7-.2 8.5 0v5c0 .8.1 1.4.2 2.1l.8 3 3.1.6c5.5 1.1 10.7 3.2 15.4 6.3l2.3 1.5 2.5-1.1c1.1-.5 1.9-1.2 2.4-1.7 1.1-1.1 2.2-2.3 3.4-3.4 2.3 1.9 4.4 4 6.3 6.3l-2 2-1.1 1.1c-.7.7-1.2 1.3-1.7 2l-1.8 2.8 1.8 2.7c3.1 4.7 5.3 9.8 6.4 15.3l.6 3.1 3.1.8c.7.2 1.5.3 2.4.2 1.6-.1 3.2-.1 4.7-.1.1 1.5.2 3 .2 4.5.2 1.2.1 2.7 0 4.1zM63.3 63.9c15.9 0 28.8-12.9 28.8-28.8S79.2 6.4 63.3 6.4 34.5 19.3 34.5 35.1s13 28.8 28.8 28.8zm0-47.5c10.3 0 18.7 8.4 18.7 18.7s-8.4 18.7-18.7 18.7c-10.3 0-18.7-8.4-18.7-18.7S53 16.4 63.3 16.4z"></path>
    <path d="M97.9 102.6c-2.8-.2-5.2 1.9-5.4 4.7l-4.4 64.4c0 .2-.1.4-.1.5l-4.1 62.6c-.2 2.7-2.4 4.7-5 4.7H47.8c-2.7 0-4.9-2.1-5-4.7l-4.1-62.6c-.1-2.1-1.6-3.9-3.6-4.5-5.8-1.8-5.8-1.8-6.3-8.2l-3.7-66.4v-.5c5.5-1.6 14.7-4.6 19.3-6l15.5 14.5c1.9 1.8 5 1.8 6.9 0l15.7-14.7 46 10.4c.7.2 1.4.2 2.1 0l43.4-8.9c2.7-.6 4.5-3.2 3.9-5.9-.6-2.7-3.2-4.5-5.9-3.9l-42.3 8.7L82.1 76c-1.6-.4-3.3.1-4.6 1.2L63.3 90.5 49.1 77.2c-1.3-1.3-3.2-1.7-5-1.1 0 0-14.7 4.7-22.2 6.9-4.5 1.4-7 4.8-7 9.4v1.2l3.7 65.5.1 1.1c.7 10 2.4 13.2 10.1 16l3.9 59.2c.5 7.9 7.2 14.2 15.1 14.2h31.1c7.9 0 14.6-6.2 15.1-14.2l4.1-62.1c0-.2 0-.3.1-.5l4.5-64.9c.1-2.7-2-5.1-4.8-5.3z"></path>
  </symbol>
  <symbol xmlns="http://www.w3.org/2000/svg" viewBox="0 0 64 64" id="repair">
    <path d="M49 40.49a3.08 3.08 0 00-3.67-.42l-1-4.06v-.17a1 1 0 00-.2-.29l-1.41-1.41a3 3 0 00-4.25 0l-.71-.72L51 20.05a1 1 0 01.9-.27 9.86 9.86 0 004.61-.11 10.11 10.11 0 007.13-7.13 9.82 9.82 0 00.27-3.65 2 2 0 00-3.42-1.17l-2.78 2.84a1 1 0 01-1.42 0l-2.8-2.83A1 1 0 0153.2 7a1 1 0 01.3-.72l2.79-2.84a2 2 0 00.47-2.08 2 2 0 00-1.65-1.3 10 10 0 00-10.78 7.41 9.81 9.81 0 00-.11 4.6A1 1 0 0144 13L30.59 26.34 14.23 10l-.52-2.64a3 3 0 00-.82-1.54L7.66.59a2 2 0 00-2.83 0L.59 4.83a2 2 0 000 2.83l5.22 5.23a3 3 0 001.54.82l2.64.52 16.35 16.36L13 44a1 1 0 01-.9.27 9.86 9.86 0 00-4.61.11 10.11 10.11 0 00-7.16 7.08 9.82 9.82 0 00-.27 3.65 2 2 0 001.33 1.65 2 2 0 002.09-.48l2.78-2.84a1 1 0 011.42 0l2.83 2.83a1 1 0 01.29.7 1 1 0 01-.3.72l-2.79 2.84a2 2 0 001.18 3.41A10.32 10.32 0 0010 64a10 10 0 009.67-7.47 9.81 9.81 0 00.11-4.6A1 1 0 0120 51l13.41-13.34.72.71a3 3 0 000 4.25L35.54 44a1 1 0 00.29.2H36l4.05 1a3 3 0 00.44 3.8l14.15 14.12a3 3 0 004.24 0l4.24-4.24a3 3 0 000-4.24zm-3.63-26.11a3 3 0 00.81-2.73A7.9 7.9 0 0146.26 8 8.07 8.07 0 0152 2.27a7.57 7.57 0 012.91-.21L52.08 4.9a3 3 0 000 4.25L54.91 12a3 3 0 004.25 0L62 9.11a7.83 7.83 0 01-.27 2.89 8.08 8.08 0 01-5.7 5.7 7.77 7.77 0 01-3.68.08 3 3 0 00-2.74.81L36.24 32 32 27.76zM18.63 49.62a3 3 0 00-.81 2.73 7.9 7.9 0 01-.08 3.65 8.07 8.07 0 01-5.7 5.7 7.57 7.57 0 01-2.91.21l2.79-2.85a3 3 0 000-4.24L9.09 52a3 3 0 00-4.25 0l-2.79 2.88A7.83 7.83 0 012.27 52 8.08 8.08 0 018 46.26a7.9 7.9 0 013.68-.08 3 3 0 002.74-.81L27.76 32 32 36.24zm21.86-14.37a1 1 0 01.71.29l.71.71-5.66 5.66-.71-.71a1 1 0 010-1.41l4.25-4.25a1 1 0 01.7-.29zM6.24 2L8 3.77 3.77 8 2 6.24zm1 9.47L4.47 8.72l4.25-4.25 2.75 2.76a1 1 0 01.28.51l.48 2.42-2.07 2.07-2.42-.48a1 1 0 01-.51-.28zm4.67 1.84l1.41-1.41L37 35.54 35.54 37zm30.88 24.9l.85 3.39-2 2-3.39-.85zm18.92 19.25l-4.25 4.25a1 1 0 01-1.41 0L41.91 47.56a1 1 0 01-.29-.7 1 1 0 01.29-.71l4.24-4.24a1 1 0 01.71-.29 1 1 0 01.7.29l14.15 14.14a1 1 0 01.29.71 1 1 0 01-.29.7z"></path>
    <path d="M44.38 46.5a.5.5 0 00-.7 0 .5.5 0 000 .71L56.4 59.94a.51.51 0 00.36.15.49.49 0 00.35-.15.5.5 0 000-.71zm1.42-1.41a.5.5 0 00-.71.71l12.73 12.72a.49.49 0 00.35.15.47.47 0 00.35-.15.48.48 0 000-.7zm1.41-1.41a.5.5 0 00-.71 0 .5.5 0 000 .7l12.73 12.73a.51.51 0 00.36.15.5.5 0 00.35-.15.51.51 0 000-.71z"></path>
  </symbol>
  <symbol xmlns="http://www.w3.org/2000/svg" viewBox="0 0 512 512" id="service">
    <path d="M59.84 209.16a8 8 0 00-5.67 2.35c-3.39 3.4-33.09 33.88-33.09 58 0 25.89 17.38 46.94 38.76 46.94S98.6 295.39 98.6 269.5c0-24.11-29.71-54.59-33.1-58a8 8 0 00-5.66-2.34zm0 91.28c-12.55 0-22.76-13.88-22.76-30.94 0-11.1 12.3-28.72 22.76-40.61C70.29 240.78 82.6 258.4 82.6 269.5c0 17.06-10.21 30.94-22.76 30.94zM487.13 174a8 8 0 00-7.79-.35l-71 35.66H313v-23h7.35a8 8 0 008-8v-27a8 8 0 00-8-8h-53.9a8 8 0 00-8 8v27a8 8 0 008 8h7.34v23h-93.85l-75.51-75.67a8 8 0 00-5.66-2.35H59.84a8 8 0 00-7.57 10.59l13.29 38.94a8 8 0 007.57 5.41h20.22l75.85 189.45a8 8 0 007.42 5H410.2a8 8 0 003.56-.84l72.73-36.21a8 8 0 004.43-7.16V180.8a8 8 0 00-3.79-6.8zm-212.67-14.68h37.9v11h-37.9zm15.34 27h7.2v23h-7.2zm185.12 145.22l-66.6 33.17H182l-75.8-189.45a8 8 0 00-7.43-5H78.85L71 147.29h24.45L171 223a8 8 0 005.66 2.35H410.2a8 8 0 003.59-.85l61.13-30.69zm-72.72-75.45V334a8 8 0 0011.58 7.16l38.93-19.47a8 8 0 004.42-7.16V236.7a8 8 0 00-11.57-7.16l-38.93 19.39a8 8 0 00-4.43 7.16zm16 5l22.93-11.42v59.92L418.2 321zm-47.08-13H215.55a8 8 0 00-8 8v77.94a8 8 0 008 8h155.57a8 8 0 008-8V256a8 8 0 00-8-8zm-8 77.94H223.55V264h139.57z"></path>
  </symbol>
</svg>